<svg width="113" height="112" fill="none" xmlns="http://www.w3.org/2000/svg"><g filter="url(#a)"><rect x="8.143" y="8" width="96" height="96" rx="48" fill="url(#b)"/><path d="M79.264 49.09c1.053-7.048-4.315-10.835-11.66-13.364l2.379-9.551-5.811-1.448-2.316 9.297c-1.526-.38-3.096-.74-4.654-1.094l2.33-9.359-5.81-1.447-2.382 9.542c-1.264-.289-2.508-.572-3.713-.872l.007-.03-8.014-2-1.547 6.209s4.314.987 4.22 1.047c2.357.587 2.782 2.143 2.71 3.378l-2.71 10.88c.164.041.371.102.602.194l-.613-.153-3.801 15.242c-.288.714-1.017 1.786-2.663 1.38.057.084-4.224-1.052-4.224-1.052l-2.885 6.653 7.567 1.885c1.407.35 2.786.72 4.142 1.067l-2.402 9.66 5.806 1.446 2.381-9.556c1.583.43 3.122.826 4.632 1.202l-2.374 9.51 5.811 1.447 2.401-9.638c9.911 1.875 17.372 1.118 20.506-7.849 2.527-7.218-.125-11.385-5.341-14.1 3.802-.869 6.665-3.365 7.426-8.526ZM65.985 67.715c-1.797 7.216-13.952 3.32-17.896 2.337l3.19-12.8c3.941.99 16.58 2.938 14.706 10.463Zm1.792-18.73c-1.636 6.567-11.758 3.229-15.041 2.415l2.89-11.603c3.286.818 13.86 2.343 12.151 9.188Z" fill="#fff"/><path d="m42.366 50.025.863.215-.158.638-.864-.215.159-.638Z" fill="#fff"/></g><defs><linearGradient id="b" x1="-8.439" y1="171.2" x2="86.689" y2="8" gradientUnits="userSpaceOnUse"><stop stop-color="#FF930F"/><stop offset="1" stop-color="#FBC411"/></linearGradient><filter id="a" x=".143" y="0" width="112" height="112" filterUnits="userSpaceOnUse" color-interpolation-filters="sRGB"><feFlood flood-opacity="0" result="BackgroundImageFix"/><feColorMatrix in="SourceAlpha" values="0 0 0 0 0 0 0 0 0 0 0 0 0 0 0 0 0 0 127 0" result="hardAlpha"/><feOffset/><feGaussianBlur stdDeviation="4"/><feComposite in2="hardAlpha" operator="out"/><feColorMatrix values="0 0 0 0 0.715625 0 0 0 0 0.728516 0 0 0 0 0.75 0 0 0 0.04 0"/><feBlend in2="BackgroundImageFix" result="effect1_dropShadow_955_3980"/><feColorMatrix in="SourceAlpha" values="0 0 0 0 0 0 0 0 0 0 0 0 0 0 0 0 0 0 127 0" result="hardAlpha"/><feOffset dy="2"/><feGaussianBlur stdDeviation="1.5"/><feComposite in2="hardAlpha" operator="out"/><feColorMatrix values="0 0 0 0 0 0 0 0 0 0 0 0 0 0 0 0 0 0 0.02 0"/><feBlend in2="effect1_dropShadow_955_3980" result="effect2_dropShadow_955_3980"/><feBlend in="SourceGraphic" in2="effect2_dropShadow_955_3980" result="shape"/></filter></defs></svg>