<svg width="112" height="112" fill="none" xmlns="http://www.w3.org/2000/svg"><g filter="url(#a)"><rect x="8" y="8" width="96" height="96" rx="48" fill="url(#b)"/><rect x="8" y="8" width="96" height="96" rx="48" fill="url(#c)"/><path d="M53.962 81.09V30.183h3.262V81.09h-3.262Zm10.202-35.118c-.212-1.883-1.087-3.341-2.625-4.375-1.538-1.048-3.473-1.571-5.807-1.571-1.67 0-3.115.265-4.335.795-1.22.517-2.168 1.233-2.844 2.148-.663.901-.994 1.929-.994 3.082 0 .968.225 1.803.676 2.506a6.068 6.068 0 0 0 1.81 1.77c.755.464 1.564.855 2.426 1.173.862.305 1.69.557 2.486.756l3.977 1.034c1.3.318 2.632.749 3.997 1.292a16.025 16.025 0 0 1 3.798 2.148 10.29 10.29 0 0 1 2.824 3.301c.73 1.313 1.094 2.884 1.094 4.713 0 2.307-.597 4.355-1.79 6.145-1.18 1.79-2.897 3.202-5.15 4.236-2.24 1.034-4.952 1.551-8.134 1.551-3.05 0-5.687-.484-7.915-1.452-2.227-.967-3.97-2.34-5.23-4.116-1.26-1.79-1.955-3.911-2.088-6.364h6.165c.12 1.472.597 2.698 1.432 3.68.848.967 1.929 1.69 3.241 2.167 1.326.464 2.778.696 4.355.696 1.737 0 3.282-.272 4.634-.815 1.365-.557 2.44-1.326 3.221-2.307.783-.995 1.174-2.155 1.174-3.48 0-1.207-.345-2.195-1.034-2.963-.676-.77-1.598-1.406-2.764-1.91-1.154-.503-2.46-.947-3.918-1.332l-4.813-1.312c-3.261-.889-5.846-2.194-7.755-3.918-1.896-1.724-2.844-4.004-2.844-6.84 0-2.347.636-4.396 1.909-6.146 1.273-1.75 2.996-3.109 5.17-4.077 2.175-.98 4.627-1.471 7.358-1.471 2.758 0 5.19.484 7.299 1.452 2.121.967 3.791 2.3 5.011 3.997 1.22 1.684 1.856 3.62 1.91 5.807h-5.927Z" fill="#fff"/></g><defs><linearGradient id="b" x1="23.5" y1="89" x2="175.5" y2="-57" gradientUnits="userSpaceOnUse"><stop/><stop offset="1" stop-color="#434343"/></linearGradient><linearGradient id="c" x1="82.24" y1="8" x2="18.523" y2="85.084" gradientUnits="userSpaceOnUse"><stop stop-color="#010417"/><stop offset="1" stop-color="#2B333F"/></linearGradient><filter id="a" x="0" y="0" width="112" height="112" filterUnits="userSpaceOnUse" color-interpolation-filters="sRGB"><feFlood flood-opacity="0" result="BackgroundImageFix"/><feColorMatrix in="SourceAlpha" values="0 0 0 0 0 0 0 0 0 0 0 0 0 0 0 0 0 0 127 0" result="hardAlpha"/><feOffset/><feGaussianBlur stdDeviation="4"/><feComposite in2="hardAlpha" operator="out"/><feColorMatrix values="0 0 0 0 0.715625 0 0 0 0 0.728516 0 0 0 0 0.75 0 0 0 0.04 0"/><feBlend in2="BackgroundImageFix" result="effect1_dropShadow_955_4024"/><feColorMatrix in="SourceAlpha" values="0 0 0 0 0 0 0 0 0 0 0 0 0 0 0 0 0 0 127 0" result="hardAlpha"/><feOffset dy="2"/><feGaussianBlur stdDeviation="1.5"/><feComposite in2="hardAlpha" operator="out"/><feColorMatrix values="0 0 0 0 0 0 0 0 0 0 0 0 0 0 0 0 0 0 0.02 0"/><feBlend in2="effect1_dropShadow_955_4024" result="effect2_dropShadow_955_4024"/><feBlend in="SourceGraphic" in2="effect2_dropShadow_955_4024" result="shape"/></filter></defs></svg>