<svg xmlns="http://www.w3.org/2000/svg" width="112" height="112" fill="none"><g filter="url(#a)"><rect width="96" height="96" x="8" y="8" fill="url(#b)" rx="48"/><rect width="96" height="96" x="8" y="8" fill="url(#c)" rx="48"/><path fill="#343434" d="m55.766 24.582-.434 1.437v41.68l.434.423 19.836-11.437-19.836-32.103Z"/><path fill="#8C8C8C" d="M55.762 24.582 35.926 56.685l19.836 11.437V24.582Z"/><path fill="#3C3C3B" d="m55.764 71.785-.245.29v14.848l.245.696 19.848-27.265-19.848 11.43Z"/><path fill="#8C8C8C" d="M55.762 87.619V71.785L35.926 60.354l19.836 27.265Z"/><path fill="#141414" d="m55.762 68.12 19.836-11.436-19.836-8.794v20.23Z"/><path fill="#393939" d="m35.926 56.684 19.836 11.437V47.89l-19.836 8.794Z"/></g><defs><linearGradient id="b" x1="155.491" x2="-29.527" y1="-31.273" y2="153.745" gradientUnits="userSpaceOnUse"><stop stop-color="#E9E9E7"/><stop offset=".272" stop-color="#EFEEEC"/><stop offset=".609" stop-color="#EEEEEC"/><stop offset="1" stop-color="#D5D4D0"/></linearGradient><linearGradient id="c" x1="6.172" x2="119.061" y1="186.969" y2="162.577" gradientUnits="userSpaceOnUse"><stop stop-color="#EEEDF1"/><stop offset="1" stop-color="#fff"/></linearGradient><filter id="a" width="112" height="112" x="0" y="0" color-interpolation-filters="sRGB" filterUnits="userSpaceOnUse"><feFlood flood-opacity="0" result="BackgroundImageFix"/><feColorMatrix in="SourceAlpha" result="hardAlpha" values="0 0 0 0 0 0 0 0 0 0 0 0 0 0 0 0 0 0 127 0"/><feOffset/><feGaussianBlur stdDeviation="4"/><feComposite in2="hardAlpha" operator="out"/><feColorMatrix values="0 0 0 0 0.715625 0 0 0 0 0.728516 0 0 0 0 0.75 0 0 0 0.04 0"/><feBlend in2="BackgroundImageFix" result="effect1_dropShadow_955_3960"/><feColorMatrix in="SourceAlpha" result="hardAlpha" values="0 0 0 0 0 0 0 0 0 0 0 0 0 0 0 0 0 0 127 0"/><feOffset dy="2"/><feGaussianBlur stdDeviation="1.5"/><feComposite in2="hardAlpha" operator="out"/><feColorMatrix values="0 0 0 0 0 0 0 0 0 0 0 0 0 0 0 0 0 0 0.02 0"/><feBlend in2="effect1_dropShadow_955_3960" result="effect2_dropShadow_955_3960"/><feBlend in="SourceGraphic" in2="effect2_dropShadow_955_3960" result="shape"/></filter></defs></svg>