<svg xmlns="http://www.w3.org/2000/svg" width="113" height="104" fill="none"><g filter="url(#a)"><rect width="96" height="96" x="8.8" fill="url(#b)" rx="48"/><path fill="#fff" d="M24.087 61.13a2.488 2.488 0 0 1-1.791-.696 2.364 2.364 0 0 1 0-3.446 2.488 2.488 0 0 1 1.791-.722 2.487 2.487 0 0 1 1.804.722 2.338 2.338 0 0 1 0 3.446 2.487 2.487 0 0 1-1.804.697Zm28.129-.398h-4.579L35.595 41.723a8.43 8.43 0 0 1-.759-1.493h-.112c.132 1.177.182 2.362.15 3.546v16.956h-4.056V34.868h4.876L47.401 53.43c.498.771.809 1.244.958 1.592h.062a24.486 24.486 0 0 1-.174-3.483v-16.67h4.03l-.061 25.863Zm19.705 0H57.764V34.868h13.598v3.645h-9.418v7.328h8.709v3.62h-8.709v7.651h9.953l.024 3.62Zm20.13-22.218h-7.254v22.218h-4.192V38.514h-7.228v-3.646h18.661l.012 3.645Z"/></g><defs><linearGradient id="b" x1="21" x2="81.5" y1="3" y2="96" gradientUnits="userSpaceOnUse"><stop stop-color="#6B3FA0"/><stop offset="1" stop-color="#552D85"/></linearGradient><filter id="a" width="112" height="112" x=".8" y="-8" color-interpolation-filters="sRGB" filterUnits="userSpaceOnUse"><feFlood flood-opacity="0" result="BackgroundImageFix"/><feColorMatrix in="SourceAlpha" result="hardAlpha" values="0 0 0 0 0 0 0 0 0 0 0 0 0 0 0 0 0 0 127 0"/><feOffset/><feGaussianBlur stdDeviation="4"/><feComposite in2="hardAlpha" operator="out"/><feColorMatrix values="0 0 0 0 0.715625 0 0 0 0 0.728516 0 0 0 0 0.75 0 0 0 0.04 0"/><feBlend in2="BackgroundImageFix" result="effect1_dropShadow_955_4267"/><feColorMatrix in="SourceAlpha" result="hardAlpha" values="0 0 0 0 0 0 0 0 0 0 0 0 0 0 0 0 0 0 127 0"/><feOffset dy="2"/><feGaussianBlur stdDeviation="1.5"/><feComposite in2="hardAlpha" operator="out"/><feColorMatrix values="0 0 0 0 0 0 0 0 0 0 0 0 0 0 0 0 0 0 0.02 0"/><feBlend in2="effect1_dropShadow_955_4267" result="effect2_dropShadow_955_4267"/><feBlend in="SourceGraphic" in2="effect2_dropShadow_955_4267" result="shape"/></filter></defs></svg>