<svg width="113" height="112" fill="none" xmlns="http://www.w3.org/2000/svg"><g filter="url(#a)"><rect x="8.429" y="8" width="96" height="96" rx="48" fill="url(#b)"/><path d="M72.817 34.79h-32.78c-6.027 0-9.847 6.502-6.815 11.758l20.231 35.065c1.32 2.29 4.629 2.29 5.949 0l20.235-35.066c3.028-5.247-.792-11.757-6.815-11.757h-.005Zm-19.38 36.307L49.03 62.57 38.4 43.557c-.701-1.217.165-2.777 1.633-2.777h13.4v30.321l.004-.004Zm21.01-27.544L63.82 62.574l-4.406 8.523v-30.32h13.4c1.468 0 2.334 1.559 1.633 2.776Z" fill="#fff"/></g><defs><linearGradient id="b" x1="97.883" y1=".582" x2="22.392" y2="125.382" gradientUnits="userSpaceOnUse"><stop stop-color="#04BEFE"/><stop offset="1" stop-color="#4481EB"/></linearGradient><filter id="a" x=".429" y="0" width="112" height="112" filterUnits="userSpaceOnUse" color-interpolation-filters="sRGB"><feFlood flood-opacity="0" result="BackgroundImageFix"/><feColorMatrix in="SourceAlpha" values="0 0 0 0 0 0 0 0 0 0 0 0 0 0 0 0 0 0 127 0" result="hardAlpha"/><feOffset/><feGaussianBlur stdDeviation="4"/><feComposite in2="hardAlpha" operator="out"/><feColorMatrix values="0 0 0 0 0.715625 0 0 0 0 0.728516 0 0 0 0 0.75 0 0 0 0.04 0"/><feBlend in2="BackgroundImageFix" result="effect1_dropShadow_955_3976"/><feColorMatrix in="SourceAlpha" values="0 0 0 0 0 0 0 0 0 0 0 0 0 0 0 0 0 0 127 0" result="hardAlpha"/><feOffset dy="2"/><feGaussianBlur stdDeviation="1.5"/><feComposite in2="hardAlpha" operator="out"/><feColorMatrix values="0 0 0 0 0 0 0 0 0 0 0 0 0 0 0 0 0 0 0.02 0"/><feBlend in2="effect1_dropShadow_955_3976" result="effect2_dropShadow_955_3976"/><feBlend in="SourceGraphic" in2="effect2_dropShadow_955_3976" result="shape"/></filter></defs></svg>