<svg xmlns="http://www.w3.org/2000/svg" width="113" height="112" fill="none"><g filter="url(#a)"><rect width="96" height="96" x="8.857" y="8" fill="url(#b)" rx="48"/><path fill="#fff" fill-rule="evenodd" d="M83.885 47.477c-1.143-1.055-2.468-2.34-3.848-3.681-1.94-1.883-3.988-3.872-5.796-5.477l-.183-.129a3.499 3.499 0 0 0-1.017-.567l-1.396-.26c-9.63-1.798-40.844-7.622-41.486-7.544-.19.027-.371.096-.531.202l-.174.137c-.215.218-.377.48-.477.77l-.045.118v.751c2.119 5.901 7.624 19.08 12.707 31.248 4.297 10.287 8.293 19.852 9.686 23.688v.001c.184.568.532 1.647 1.182 1.702h.146c.348 0 1.832-1.96 1.832-1.96S81.009 54.31 83.693 50.885c.347-.422.654-.876.916-1.356a2.208 2.208 0 0 0-.724-2.052Zm-22.594 3.746 11.32-9.388 6.64 6.119-17.96 3.27ZM37.404 34.637l19.49 15.973 12.044-10.157-31.534-5.816Zm21.249 20.158L78.6 51.581 55.795 79.057l2.858-24.262Zm-3.39-1.163L34.756 36.23l17.54 42.845 2.967-25.443Z" clip-rule="evenodd"/></g><defs><linearGradient id="b" x1="71.694" x2="8.857" y1="21.964" y2="151.127" gradientUnits="userSpaceOnUse"><stop stop-color="#FC070C"/><stop offset="1" stop-color="#F45C43"/></linearGradient><filter id="a" width="112" height="112" x=".857" y="0" color-interpolation-filters="sRGB" filterUnits="userSpaceOnUse"><feFlood flood-opacity="0" result="BackgroundImageFix"/><feColorMatrix in="SourceAlpha" result="hardAlpha" values="0 0 0 0 0 0 0 0 0 0 0 0 0 0 0 0 0 0 127 0"/><feOffset/><feGaussianBlur stdDeviation="4"/><feComposite in2="hardAlpha" operator="out"/><feColorMatrix values="0 0 0 0 0.715625 0 0 0 0 0.728516 0 0 0 0 0.75 0 0 0 0.04 0"/><feBlend in2="BackgroundImageFix" result="effect1_dropShadow_955_3986"/><feColorMatrix in="SourceAlpha" result="hardAlpha" values="0 0 0 0 0 0 0 0 0 0 0 0 0 0 0 0 0 0 127 0"/><feOffset dy="2"/><feGaussianBlur stdDeviation="1.5"/><feComposite in2="hardAlpha" operator="out"/><feColorMatrix values="0 0 0 0 0 0 0 0 0 0 0 0 0 0 0 0 0 0 0.02 0"/><feBlend in2="effect1_dropShadow_955_3986" result="effect2_dropShadow_955_3986"/><feBlend in="SourceGraphic" in2="effect2_dropShadow_955_3986" result="shape"/></filter></defs></svg>