<svg width="113" height="112" fill="none" xmlns="http://www.w3.org/2000/svg"><g filter="url(#a)"><rect x="8.286" y="8" width="96" height="96" rx="48" fill="url(#b)"/><path d="M69.984 63.582c0-7.15-4.29-9.602-12.87-10.623-6.129-.817-7.354-2.451-7.354-5.312 0-2.86 2.043-4.698 6.128-4.698 3.677 0 5.72 1.226 6.742 4.29.204.613.817 1.021 1.43 1.021h3.268c.817 0 1.43-.613 1.43-1.43v-.204c-.817-4.494-4.494-7.967-9.193-8.375v-4.903c0-.818-.612-1.43-1.634-1.635h-3.064c-.817 0-1.43.613-1.635 1.635v4.698c-6.128.817-10.01 4.903-10.01 10.01 0 6.742 4.086 9.397 12.666 10.419 5.72 1.021 7.559 2.247 7.559 5.515 0 3.27-2.86 5.516-6.742 5.516-5.311 0-7.15-2.247-7.763-5.311-.204-.817-.816-1.226-1.43-1.226H44.04c-.816 0-1.43.613-1.43 1.43v.204c.818 5.107 4.086 8.784 10.828 9.806v4.903c0 .817.613 1.43 1.634 1.634h3.064c.818 0 1.43-.613 1.635-1.634v-4.903c6.128-1.022 10.214-5.312 10.214-10.827Z" fill="#fff"/><path fill-rule="evenodd" clip-rule="evenodd" d="M27.9 45.809c-5.924 15.73 2.248 33.503 18.182 39.223.613.409 1.226 1.225 1.226 1.838v2.86c0 .41 0 .614-.205.817-.204.818-1.021 1.226-1.838.818-11.44-3.677-20.225-12.462-23.902-23.902-6.128-19.406 4.495-40.04 23.902-46.168.204-.204.612-.204.817-.204.817.204 1.226.817 1.226 1.634v2.86c0 1.021-.409 1.634-1.226 2.043-8.376 3.064-15.117 9.601-18.181 18.181Zm37.992-23.697c.204-.817 1.022-1.226 1.839-.817C78.966 24.971 87.955 33.755 91.632 45.4c6.129 19.407-4.494 40.04-23.901 46.169-.204.204-.613.204-.817.204-.818-.204-1.226-.817-1.226-1.634v-2.86c0-1.022.408-1.635 1.226-2.043 8.375-3.064 15.117-9.601 18.18-18.181 5.925-15.73-2.246-33.503-18.18-39.223-.613-.409-1.226-1.226-1.226-2.043v-2.86c0-.409 0-.613.204-.817Z" fill="#fff"/></g><defs><linearGradient id="b" x1="61.522" y1="47.273" x2="-30.114" y2="183.418" gradientUnits="userSpaceOnUse"><stop stop-color="#2775CA"/><stop offset="1" stop-color="#00BBF9"/></linearGradient><filter id="a" x=".286" y="0" width="112" height="112" filterUnits="userSpaceOnUse" color-interpolation-filters="sRGB"><feFlood flood-opacity="0" result="BackgroundImageFix"/><feColorMatrix in="SourceAlpha" values="0 0 0 0 0 0 0 0 0 0 0 0 0 0 0 0 0 0 127 0" result="hardAlpha"/><feOffset/><feGaussianBlur stdDeviation="4"/><feComposite in2="hardAlpha" operator="out"/><feColorMatrix values="0 0 0 0 0.715625 0 0 0 0 0.728516 0 0 0 0 0.75 0 0 0 0.04 0"/><feBlend in2="BackgroundImageFix" result="effect1_dropShadow_955_4001"/><feColorMatrix in="SourceAlpha" values="0 0 0 0 0 0 0 0 0 0 0 0 0 0 0 0 0 0 127 0" result="hardAlpha"/><feOffset dy="2"/><feGaussianBlur stdDeviation="1.5"/><feComposite in2="hardAlpha" operator="out"/><feColorMatrix values="0 0 0 0 0 0 0 0 0 0 0 0 0 0 0 0 0 0 0.02 0"/><feBlend in2="effect1_dropShadow_955_4001" result="effect2_dropShadow_955_4001"/><feBlend in="SourceGraphic" in2="effect2_dropShadow_955_4001" result="shape"/></filter></defs></svg>