<svg width="113" height="112" fill="none" xmlns="http://www.w3.org/2000/svg"><g filter="url(#a)"><rect x="8.714" y="8" width="96" height="96" rx="48" fill="url(#b)"/><path d="M79.502 30.69H33.308v11.153H50.83v16.392h11.152V41.843h17.521V30.691Z" fill="#fff"/><path d="M56.511 59.98c-14.494 0-26.244-2.293-26.244-5.123s11.75-5.124 26.244-5.124 26.244 2.294 26.244 5.124c0 2.83-11.75 5.124-26.244 5.124Zm29.468-4.269c0-3.649-13.193-6.607-29.468-6.607-16.274 0-29.469 2.958-29.469 6.607 0 3.214 10.231 5.89 23.788 6.484v23.53H61.98v-23.52c13.661-.575 23.998-3.264 23.998-6.494Z" fill="#fff"/></g><defs><linearGradient id="b" x1="17.878" y1="139.782" x2="65.442" y2="38.545" gradientUnits="userSpaceOnUse"><stop stop-color="#8DDAD5"/><stop offset="1" stop-color="#1BA27A"/></linearGradient><filter id="a" x=".714" y="0" width="112" height="112" filterUnits="userSpaceOnUse" color-interpolation-filters="sRGB"><feFlood flood-opacity="0" result="BackgroundImageFix"/><feColorMatrix in="SourceAlpha" values="0 0 0 0 0 0 0 0 0 0 0 0 0 0 0 0 0 0 127 0" result="hardAlpha"/><feOffset/><feGaussianBlur stdDeviation="4"/><feComposite in2="hardAlpha" operator="out"/><feColorMatrix values="0 0 0 0 0.715625 0 0 0 0 0.728516 0 0 0 0 0.75 0 0 0 0.04 0"/><feBlend in2="BackgroundImageFix" result="effect1_dropShadow_955_3970"/><feColorMatrix in="SourceAlpha" values="0 0 0 0 0 0 0 0 0 0 0 0 0 0 0 0 0 0 127 0" result="hardAlpha"/><feOffset dy="2"/><feGaussianBlur stdDeviation="1.5"/><feComposite in2="hardAlpha" operator="out"/><feColorMatrix values="0 0 0 0 0 0 0 0 0 0 0 0 0 0 0 0 0 0 0.02 0"/><feBlend in2="effect1_dropShadow_955_3970" result="effect2_dropShadow_955_3970"/><feBlend in="SourceGraphic" in2="effect2_dropShadow_955_3970" result="shape"/></filter></defs></svg>